<mxfile host="app.diagrams.net" modified="2023-01-14T20:56:45.824Z" agent="5.0 (Windows NT 10.0; Win64; x64) AppleWebKit/537.36 (KHTML, like Gecko) Chrome/108.0.0.0 Safari/537.36" etag="85JFKSGfLcS8a5LZsy2B" version="20.8.5" type="github">
  <diagram id="0DH3T3HT9MEGjzves2Dj" name="Page-1">
    <mxGraphModel dx="3221" dy="598" grid="1" gridSize="10" guides="1" tooltips="1" connect="1" arrows="1" fold="1" page="1" pageScale="1" pageWidth="827" pageHeight="1169" math="0" shadow="0">
      <root>
        <mxCell id="0" />
        <mxCell id="1" parent="0" />
        <mxCell id="7w73uh7pz82JfWq3_6is-2" style="edgeStyle=orthogonalEdgeStyle;rounded=0;orthogonalLoop=1;jettySize=auto;html=1;" parent="1" source="7w73uh7pz82JfWq3_6is-1" target="7w73uh7pz82JfWq3_6is-3" edge="1">
          <mxGeometry relative="1" as="geometry">
            <mxPoint x="400" y="150" as="targetPoint" />
          </mxGeometry>
        </mxCell>
        <mxCell id="7w73uh7pz82JfWq3_6is-1" value="Welcome (1)" style="rounded=0;whiteSpace=wrap;html=1;" parent="1" vertex="1">
          <mxGeometry x="340" y="20" width="120" height="60" as="geometry" />
        </mxCell>
        <mxCell id="7w73uh7pz82JfWq3_6is-11" value="" style="edgeStyle=orthogonalEdgeStyle;rounded=0;orthogonalLoop=1;jettySize=auto;html=1;" parent="1" source="7w73uh7pz82JfWq3_6is-3" target="7w73uh7pz82JfWq3_6is-10" edge="1">
          <mxGeometry relative="1" as="geometry">
            <Array as="points">
              <mxPoint x="400" y="270" />
              <mxPoint x="-520" y="270" />
            </Array>
          </mxGeometry>
        </mxCell>
        <mxCell id="7w73uh7pz82JfWq3_6is-13" value="" style="edgeStyle=orthogonalEdgeStyle;rounded=0;orthogonalLoop=1;jettySize=auto;html=1;" parent="1" source="7w73uh7pz82JfWq3_6is-3" target="7w73uh7pz82JfWq3_6is-12" edge="1">
          <mxGeometry relative="1" as="geometry">
            <Array as="points">
              <mxPoint x="400" y="270" />
              <mxPoint x="140" y="270" />
            </Array>
          </mxGeometry>
        </mxCell>
        <mxCell id="7w73uh7pz82JfWq3_6is-16" style="edgeStyle=orthogonalEdgeStyle;rounded=0;orthogonalLoop=1;jettySize=auto;html=1;" parent="1" source="7w73uh7pz82JfWq3_6is-3" target="7w73uh7pz82JfWq3_6is-15" edge="1">
          <mxGeometry relative="1" as="geometry">
            <mxPoint x="500" y="220" as="sourcePoint" />
            <Array as="points">
              <mxPoint x="400" y="270" />
              <mxPoint x="800" y="270" />
            </Array>
          </mxGeometry>
        </mxCell>
        <mxCell id="7w73uh7pz82JfWq3_6is-18" style="edgeStyle=orthogonalEdgeStyle;rounded=0;orthogonalLoop=1;jettySize=auto;html=1;" parent="1" source="7w73uh7pz82JfWq3_6is-3" target="7w73uh7pz82JfWq3_6is-17" edge="1">
          <mxGeometry relative="1" as="geometry">
            <mxPoint x="700" y="240" as="targetPoint" />
            <Array as="points">
              <mxPoint x="400" y="270" />
              <mxPoint x="1370" y="270" />
            </Array>
          </mxGeometry>
        </mxCell>
        <mxCell id="7w73uh7pz82JfWq3_6is-3" value="Awakening (2)" style="rounded=0;whiteSpace=wrap;html=1;" parent="1" vertex="1">
          <mxGeometry x="340" y="130" width="120" height="60" as="geometry" />
        </mxCell>
        <mxCell id="7iLDofzupHCWeBJ56FgA-15" style="edgeStyle=orthogonalEdgeStyle;rounded=0;orthogonalLoop=1;jettySize=auto;html=1;" edge="1" parent="1" source="7w73uh7pz82JfWq3_6is-10" target="7iLDofzupHCWeBJ56FgA-1">
          <mxGeometry relative="1" as="geometry" />
        </mxCell>
        <mxCell id="7iLDofzupHCWeBJ56FgA-16" style="edgeStyle=orthogonalEdgeStyle;rounded=0;orthogonalLoop=1;jettySize=auto;html=1;" edge="1" parent="1" source="7w73uh7pz82JfWq3_6is-10" target="7iLDofzupHCWeBJ56FgA-2">
          <mxGeometry relative="1" as="geometry" />
        </mxCell>
        <mxCell id="7iLDofzupHCWeBJ56FgA-17" style="edgeStyle=orthogonalEdgeStyle;rounded=0;orthogonalLoop=1;jettySize=auto;html=1;" edge="1" parent="1" source="7w73uh7pz82JfWq3_6is-10" target="7iLDofzupHCWeBJ56FgA-3">
          <mxGeometry relative="1" as="geometry" />
        </mxCell>
        <mxCell id="7iLDofzupHCWeBJ56FgA-18" style="edgeStyle=orthogonalEdgeStyle;rounded=0;orthogonalLoop=1;jettySize=auto;html=1;" edge="1" parent="1" source="7w73uh7pz82JfWq3_6is-10" target="7iLDofzupHCWeBJ56FgA-4">
          <mxGeometry relative="1" as="geometry" />
        </mxCell>
        <mxCell id="7w73uh7pz82JfWq3_6is-10" value="breathe (3)" style="rounded=0;whiteSpace=wrap;html=1;" parent="1" vertex="1">
          <mxGeometry x="-560" y="360" width="90" height="30" as="geometry" />
        </mxCell>
        <mxCell id="7iLDofzupHCWeBJ56FgA-41" style="edgeStyle=orthogonalEdgeStyle;rounded=0;orthogonalLoop=1;jettySize=auto;html=1;" edge="1" parent="1" source="7w73uh7pz82JfWq3_6is-12" target="7iLDofzupHCWeBJ56FgA-28">
          <mxGeometry relative="1" as="geometry" />
        </mxCell>
        <mxCell id="7iLDofzupHCWeBJ56FgA-42" style="edgeStyle=orthogonalEdgeStyle;rounded=0;orthogonalLoop=1;jettySize=auto;html=1;" edge="1" parent="1" source="7w73uh7pz82JfWq3_6is-12" target="7iLDofzupHCWeBJ56FgA-30">
          <mxGeometry relative="1" as="geometry" />
        </mxCell>
        <mxCell id="7iLDofzupHCWeBJ56FgA-43" style="edgeStyle=orthogonalEdgeStyle;rounded=0;orthogonalLoop=1;jettySize=auto;html=1;" edge="1" parent="1" source="7w73uh7pz82JfWq3_6is-12" target="7iLDofzupHCWeBJ56FgA-31">
          <mxGeometry relative="1" as="geometry" />
        </mxCell>
        <mxCell id="7w73uh7pz82JfWq3_6is-12" value="toilet (4)" style="rounded=0;whiteSpace=wrap;html=1;" parent="1" vertex="1">
          <mxGeometry x="140" y="340" width="110" height="30" as="geometry" />
        </mxCell>
        <mxCell id="7iLDofzupHCWeBJ56FgA-44" style="edgeStyle=orthogonalEdgeStyle;rounded=0;orthogonalLoop=1;jettySize=auto;html=1;" edge="1" parent="1" source="7w73uh7pz82JfWq3_6is-15" target="7iLDofzupHCWeBJ56FgA-33">
          <mxGeometry relative="1" as="geometry" />
        </mxCell>
        <mxCell id="7iLDofzupHCWeBJ56FgA-45" style="edgeStyle=orthogonalEdgeStyle;rounded=0;orthogonalLoop=1;jettySize=auto;html=1;" edge="1" parent="1" source="7w73uh7pz82JfWq3_6is-15" target="7iLDofzupHCWeBJ56FgA-32">
          <mxGeometry relative="1" as="geometry" />
        </mxCell>
        <mxCell id="7iLDofzupHCWeBJ56FgA-46" style="edgeStyle=orthogonalEdgeStyle;rounded=0;orthogonalLoop=1;jettySize=auto;html=1;" edge="1" parent="1" source="7w73uh7pz82JfWq3_6is-15" target="7iLDofzupHCWeBJ56FgA-35">
          <mxGeometry relative="1" as="geometry" />
        </mxCell>
        <mxCell id="7w73uh7pz82JfWq3_6is-15" value="cabinet (5)" style="rounded=0;whiteSpace=wrap;html=1;" parent="1" vertex="1">
          <mxGeometry x="740" y="370" width="120" height="30" as="geometry" />
        </mxCell>
        <mxCell id="7iLDofzupHCWeBJ56FgA-47" style="edgeStyle=orthogonalEdgeStyle;rounded=0;orthogonalLoop=1;jettySize=auto;html=1;" edge="1" parent="1" source="7w73uh7pz82JfWq3_6is-17" target="7iLDofzupHCWeBJ56FgA-37">
          <mxGeometry relative="1" as="geometry" />
        </mxCell>
        <mxCell id="7iLDofzupHCWeBJ56FgA-48" style="edgeStyle=orthogonalEdgeStyle;rounded=0;orthogonalLoop=1;jettySize=auto;html=1;" edge="1" parent="1" source="7w73uh7pz82JfWq3_6is-17" target="7iLDofzupHCWeBJ56FgA-36">
          <mxGeometry relative="1" as="geometry" />
        </mxCell>
        <mxCell id="7iLDofzupHCWeBJ56FgA-49" style="edgeStyle=orthogonalEdgeStyle;rounded=0;orthogonalLoop=1;jettySize=auto;html=1;" edge="1" parent="1" source="7w73uh7pz82JfWq3_6is-17" target="7iLDofzupHCWeBJ56FgA-38">
          <mxGeometry relative="1" as="geometry" />
        </mxCell>
        <mxCell id="7w73uh7pz82JfWq3_6is-17" value="door (6)" style="rounded=0;whiteSpace=wrap;html=1;" parent="1" vertex="1">
          <mxGeometry x="1330" y="370" width="120" height="30" as="geometry" />
        </mxCell>
        <mxCell id="7iLDofzupHCWeBJ56FgA-1" value="window (7)" style="rounded=0;whiteSpace=wrap;html=1;" vertex="1" parent="1">
          <mxGeometry x="-960" y="555" width="90" height="30" as="geometry" />
        </mxCell>
        <mxCell id="7iLDofzupHCWeBJ56FgA-2" value="toilet (8)" style="rounded=0;whiteSpace=wrap;html=1;" vertex="1" parent="1">
          <mxGeometry x="-740" y="555" width="110" height="30" as="geometry" />
        </mxCell>
        <mxCell id="7iLDofzupHCWeBJ56FgA-3" value="cabinet (9)" style="rounded=0;whiteSpace=wrap;html=1;" vertex="1" parent="1">
          <mxGeometry x="-500" y="555" width="80" height="30" as="geometry" />
        </mxCell>
        <mxCell id="7iLDofzupHCWeBJ56FgA-4" value="door (10)" style="rounded=0;whiteSpace=wrap;html=1;" vertex="1" parent="1">
          <mxGeometry x="-310" y="555" width="70" height="30" as="geometry" />
        </mxCell>
        <mxCell id="7iLDofzupHCWeBJ56FgA-28" value="window (11)" style="rounded=0;whiteSpace=wrap;html=1;" vertex="1" parent="1">
          <mxGeometry x="40" y="540" width="60" height="30" as="geometry" />
        </mxCell>
        <mxCell id="7iLDofzupHCWeBJ56FgA-30" value="cabinet (12)" style="rounded=0;whiteSpace=wrap;html=1;" vertex="1" parent="1">
          <mxGeometry x="150" y="540" width="90" height="30" as="geometry" />
        </mxCell>
        <mxCell id="7iLDofzupHCWeBJ56FgA-31" value="door (13)" style="rounded=0;whiteSpace=wrap;html=1;" vertex="1" parent="1">
          <mxGeometry x="260" y="540" width="70" height="30" as="geometry" />
        </mxCell>
        <mxCell id="7iLDofzupHCWeBJ56FgA-32" value="window (14)" style="rounded=0;whiteSpace=wrap;html=1;" vertex="1" parent="1">
          <mxGeometry x="650" y="520" width="60" height="30" as="geometry" />
        </mxCell>
        <mxCell id="7iLDofzupHCWeBJ56FgA-33" value="toilet (15)" style="rounded=0;whiteSpace=wrap;html=1;" vertex="1" parent="1">
          <mxGeometry x="765" y="510" width="70" height="30" as="geometry" />
        </mxCell>
        <mxCell id="7iLDofzupHCWeBJ56FgA-35" value="door (16)" style="rounded=0;whiteSpace=wrap;html=1;" vertex="1" parent="1">
          <mxGeometry x="880" y="525" width="70" height="30" as="geometry" />
        </mxCell>
        <mxCell id="7iLDofzupHCWeBJ56FgA-36" value="window (17)" style="rounded=0;whiteSpace=wrap;html=1;" vertex="1" parent="1">
          <mxGeometry x="1270" y="520" width="60" height="30" as="geometry" />
        </mxCell>
        <mxCell id="7iLDofzupHCWeBJ56FgA-37" value="toilet (18)" style="rounded=0;whiteSpace=wrap;html=1;" vertex="1" parent="1">
          <mxGeometry x="1350" y="520" width="70" height="30" as="geometry" />
        </mxCell>
        <mxCell id="7iLDofzupHCWeBJ56FgA-38" value="cabinet (19)" style="rounded=0;whiteSpace=wrap;html=1;" vertex="1" parent="1">
          <mxGeometry x="1440" y="520" width="90" height="30" as="geometry" />
        </mxCell>
        <mxCell id="7iLDofzupHCWeBJ56FgA-50" value="window" style="rounded=0;whiteSpace=wrap;html=1;" vertex="1" parent="1">
          <mxGeometry x="-200" y="50" width="60" height="30" as="geometry" />
        </mxCell>
        <mxCell id="7iLDofzupHCWeBJ56FgA-51" value="toilet (4)" style="rounded=0;whiteSpace=wrap;html=1;" vertex="1" parent="1">
          <mxGeometry x="-120" y="50" width="70" height="30" as="geometry" />
        </mxCell>
        <mxCell id="7iLDofzupHCWeBJ56FgA-52" value="cabinet (5)" style="rounded=0;whiteSpace=wrap;html=1;" vertex="1" parent="1">
          <mxGeometry x="-30" y="50" width="90" height="30" as="geometry" />
        </mxCell>
        <mxCell id="7iLDofzupHCWeBJ56FgA-53" value="door (6)" style="rounded=0;whiteSpace=wrap;html=1;" vertex="1" parent="1">
          <mxGeometry x="80" y="50" width="70" height="30" as="geometry" />
        </mxCell>
      </root>
    </mxGraphModel>
  </diagram>
</mxfile>
